<svg xmlns="http://www.w3.org/2000/svg" version="1.1" xmlns:xlink="http://www.w3.org/1999/xlink" xmlns:svgjs="http://svgjs.com/svgjs" width="2000" height="4000" preserveAspectRatio="none" viewBox="0 0 2000 4000"><g mask="url(&quot;#SvgjsMask1007&quot;)" fill="none"><rect width="2000" height="4000" x="0" y="0" fill="rgba(8, 10, 12, 1)"></rect><path d="M84.68 322.82L158.3 365.32L158.3 450.32L84.68 492.82L11.07 450.32L11.07 365.32zM11.07 705.32L84.68 747.82L84.68 832.82L11.07 875.32L-62.54 832.82L-62.54 747.82zM11.07 960.32L84.68 1002.82L84.68 1087.82L11.07 1130.32L-62.54 1087.82L-62.54 1002.82zM11.07 1725.32L84.68 1767.82L84.68 1852.82L11.07 1895.32L-62.54 1852.82L-62.54 1767.82zM84.68 1852.82L158.3 1895.32L158.3 1980.32L84.68 2022.82L11.07 1980.32L11.07 1895.32zM11.07 2490.32L84.68 2532.82L84.68 2617.82L11.07 2660.32L-62.54 2617.82L-62.54 2532.82zM84.68 2872.82L158.3 2915.32L158.3 3000.32L84.68 3042.82L11.07 3000.32L11.07 2915.32zM84.68 3382.82L158.3 3425.32L158.3 3510.32L84.68 3552.82L11.07 3510.32L11.07 3425.32zM11.07 3510.32L84.68 3552.82L84.68 3637.82L11.07 3680.32L-62.54 3637.82L-62.54 3552.82zM158.3 -59.68L231.91 -17.18L231.91 67.82L158.3 110.32L84.68 67.82L84.68 -17.18zM231.91 67.82L305.53 110.32L305.53 195.32L231.91 237.82L158.3 195.32L158.3 110.32zM158.3 450.32L231.91 492.82L231.91 577.82L158.3 620.32L84.68 577.82L84.68 492.82zM231.91 832.82L305.53 875.32L305.53 960.32L231.91 1002.82L158.3 960.32L158.3 875.32zM158.3 1725.32L231.91 1767.82L231.91 1852.82L158.3 1895.32L84.68 1852.82L84.68 1767.82zM231.91 1852.82L305.53 1895.32L305.53 1980.32L231.91 2022.82L158.3 1980.32L158.3 1895.32zM231.91 2107.82L305.53 2150.32L305.53 2235.32L231.91 2277.82L158.3 2235.32L158.3 2150.32zM231.91 2362.82L305.53 2405.32L305.53 2490.32L231.91 2532.82L158.3 2490.32L158.3 2405.32zM231.91 3382.82L305.53 3425.32L305.53 3510.32L231.91 3552.82L158.3 3510.32L158.3 3425.32zM158.3 3510.32L231.91 3552.82L231.91 3637.82L158.3 3680.32L84.68 3637.82L84.68 3552.82zM379.14 1597.82L452.76 1640.32L452.76 1725.32L379.14 1767.82L305.53 1725.32L305.53 1640.32zM379.14 2107.82L452.76 2150.32L452.76 2235.32L379.14 2277.82L305.53 2235.32L305.53 2150.32zM305.53 3000.32L379.14 3042.82L379.14 3127.82L305.53 3170.32L231.91 3127.82L231.91 3042.82zM379.14 3382.82L452.76 3425.32L452.76 3510.32L379.14 3552.82L305.53 3510.32L305.53 3425.32zM305.53 3510.32L379.14 3552.82L379.14 3637.82L305.53 3680.32L231.91 3637.82L231.91 3552.82zM305.53 3765.32L379.14 3807.82L379.14 3892.82L305.53 3935.32L231.91 3892.82L231.91 3807.82zM526.37 67.82L599.98 110.32L599.98 195.32L526.37 237.82L452.76 195.32L452.76 110.32zM526.37 322.82L599.98 365.32L599.98 450.32L526.37 492.82L452.76 450.32L452.76 365.32zM526.37 832.82L599.98 875.32L599.98 960.32L526.37 1002.82L452.76 960.32L452.76 875.32zM452.76 960.32L526.37 1002.82L526.37 1087.82L452.76 1130.32L379.14 1087.82L379.14 1002.82zM452.76 2745.32L526.37 2787.82L526.37 2872.82L452.76 2915.32L379.14 2872.82L379.14 2787.82zM526.37 3127.82L599.98 3170.32L599.98 3255.32L526.37 3297.82L452.76 3255.32L452.76 3170.32zM452.76 3255.32L526.37 3297.82L526.37 3382.82L452.76 3425.32L379.14 3382.82L379.14 3297.82zM526.37 3892.82L599.98 3935.32L599.98 4020.32L526.37 4062.82L452.76 4020.32L452.76 3935.32zM673.6 322.82L747.21 365.32L747.21 450.32L673.6 492.82L599.98 450.32L599.98 365.32zM599.98 450.32L673.6 492.82L673.6 577.82L599.98 620.32L526.37 577.82L526.37 492.82zM673.6 577.82L747.21 620.32L747.21 705.32L673.6 747.82L599.98 705.32L599.98 620.32zM673.6 1087.82L747.21 1130.32L747.21 1215.32L673.6 1257.82L599.98 1215.32L599.98 1130.32zM599.98 1215.32L673.6 1257.82L673.6 1342.82L599.98 1385.32L526.37 1342.82L526.37 1257.82zM673.6 1342.82L747.21 1385.32L747.21 1470.32L673.6 1512.82L599.98 1470.32L599.98 1385.32zM599.98 1470.32L673.6 1512.82L673.6 1597.82L599.98 1640.32L526.37 1597.82L526.37 1512.82zM673.6 1597.82L747.21 1640.32L747.21 1725.32L673.6 1767.82L599.98 1725.32L599.98 1640.32zM599.98 2490.32L673.6 2532.82L673.6 2617.82L599.98 2660.32L526.37 2617.82L526.37 2532.82zM673.6 2617.82L747.21 2660.32L747.21 2745.32L673.6 2787.82L599.98 2745.32L599.98 2660.32zM673.6 2872.82L747.21 2915.32L747.21 3000.32L673.6 3042.82L599.98 3000.32L599.98 2915.32zM673.6 3127.82L747.21 3170.32L747.21 3255.32L673.6 3297.82L599.98 3255.32L599.98 3170.32zM599.98 3765.32L673.6 3807.82L673.6 3892.82L599.98 3935.32L526.37 3892.82L526.37 3807.82zM820.83 67.82L894.44 110.32L894.44 195.32L820.83 237.82L747.21 195.32L747.21 110.32zM820.83 577.82L894.44 620.32L894.44 705.32L820.83 747.82L747.21 705.32L747.21 620.32zM747.21 705.32L820.83 747.82L820.83 832.82L747.21 875.32L673.6 832.82L673.6 747.82zM747.21 1470.32L820.83 1512.82L820.83 1597.82L747.21 1640.32L673.6 1597.82L673.6 1512.82zM747.21 1725.32L820.83 1767.82L820.83 1852.82L747.21 1895.32L673.6 1852.82L673.6 1767.82zM820.83 2107.82L894.44 2150.32L894.44 2235.32L820.83 2277.82L747.21 2235.32L747.21 2150.32zM747.21 2235.32L820.83 2277.82L820.83 2362.82L747.21 2405.32L673.6 2362.82L673.6 2277.82zM820.83 2362.82L894.44 2405.32L894.44 2490.32L820.83 2532.82L747.21 2490.32L747.21 2405.32zM747.21 2490.32L820.83 2532.82L820.83 2617.82L747.21 2660.32L673.6 2617.82L673.6 2532.82zM747.21 2745.32L820.83 2787.82L820.83 2872.82L747.21 2915.32L673.6 2872.82L673.6 2787.82zM820.83 3127.82L894.44 3170.32L894.44 3255.32L820.83 3297.82L747.21 3255.32L747.21 3170.32zM747.21 3255.32L820.83 3297.82L820.83 3382.82L747.21 3425.32L673.6 3382.82L673.6 3297.82zM747.21 3510.32L820.83 3552.82L820.83 3637.82L747.21 3680.32L673.6 3637.82L673.6 3552.82zM894.44 450.32L968.06 492.82L968.06 577.82L894.44 620.32L820.83 577.82L820.83 492.82zM968.06 577.82L1041.67 620.32L1041.67 705.32L968.06 747.82L894.44 705.32L894.44 620.32zM894.44 1215.32L968.06 1257.82L968.06 1342.82L894.44 1385.32L820.83 1342.82L820.83 1257.82zM894.44 1470.32L968.06 1512.82L968.06 1597.82L894.44 1640.32L820.83 1597.82L820.83 1512.82zM968.06 1597.82L1041.67 1640.32L1041.67 1725.32L968.06 1767.82L894.44 1725.32L894.44 1640.32zM968.06 1852.82L1041.67 1895.32L1041.67 1980.32L968.06 2022.82L894.44 1980.32L894.44 1895.32zM968.06 2107.82L1041.67 2150.32L1041.67 2235.32L968.06 2277.82L894.44 2235.32L894.44 2150.32zM894.44 2490.32L968.06 2532.82L968.06 2617.82L894.44 2660.32L820.83 2617.82L820.83 2532.82zM968.06 2617.82L1041.67 2660.32L1041.67 2745.32L968.06 2787.82L894.44 2745.32L894.44 2660.32zM894.44 2745.32L968.06 2787.82L968.06 2872.82L894.44 2915.32L820.83 2872.82L820.83 2787.82zM968.06 2872.82L1041.67 2915.32L1041.67 3000.32L968.06 3042.82L894.44 3000.32L894.44 2915.32zM894.44 3510.32L968.06 3552.82L968.06 3637.82L894.44 3680.32L820.83 3637.82L820.83 3552.82zM968.06 3637.82L1041.67 3680.32L1041.67 3765.32L968.06 3807.82L894.44 3765.32L894.44 3680.32zM968.06 3892.82L1041.67 3935.32L1041.67 4020.32L968.06 4062.82L894.44 4020.32L894.44 3935.32zM1041.67 -59.68L1115.28 -17.18L1115.28 67.82L1041.67 110.32L968.06 67.82L968.06 -17.18zM1041.67 960.32L1115.28 1002.82L1115.28 1087.82L1041.67 1130.32L968.06 1087.82L968.06 1002.82zM1041.67 1215.32L1115.28 1257.82L1115.28 1342.82L1041.67 1385.32L968.06 1342.82L968.06 1257.82zM1115.28 1342.82L1188.9 1385.32L1188.9 1470.32L1115.28 1512.82L1041.67 1470.32L1041.67 1385.32zM1041.67 1725.32L1115.28 1767.82L1115.28 1852.82L1041.67 1895.32L968.06 1852.82L968.06 1767.82zM1115.28 2107.82L1188.9 2150.32L1188.9 2235.32L1115.28 2277.82L1041.67 2235.32L1041.67 2150.32zM1115.28 2362.82L1188.9 2405.32L1188.9 2490.32L1115.28 2532.82L1041.67 2490.32L1041.67 2405.32zM1041.67 2745.32L1115.28 2787.82L1115.28 2872.82L1041.67 2915.32L968.06 2872.82L968.06 2787.82zM1115.28 3382.82L1188.9 3425.32L1188.9 3510.32L1115.28 3552.82L1041.67 3510.32L1041.67 3425.32zM1041.67 3510.32L1115.28 3552.82L1115.28 3637.82L1041.67 3680.32L968.06 3637.82L968.06 3552.82zM1041.67 3765.32L1115.28 3807.82L1115.28 3892.82L1041.67 3935.32L968.06 3892.82L968.06 3807.82zM1188.9 -59.68L1262.51 -17.18L1262.51 67.82L1188.9 110.32L1115.28 67.82L1115.28 -17.18zM1262.51 577.82L1336.13 620.32L1336.13 705.32L1262.51 747.82L1188.9 705.32L1188.9 620.32zM1262.51 832.82L1336.13 875.32L1336.13 960.32L1262.51 1002.82L1188.9 960.32L1188.9 875.32zM1188.9 960.32L1262.51 1002.82L1262.51 1087.82L1188.9 1130.32L1115.28 1087.82L1115.28 1002.82zM1262.51 1087.82L1336.13 1130.32L1336.13 1215.32L1262.51 1257.82L1188.9 1215.32L1188.9 1130.32zM1188.9 1215.32L1262.51 1257.82L1262.51 1342.82L1188.9 1385.32L1115.28 1342.82L1115.28 1257.82zM1188.9 1470.32L1262.51 1512.82L1262.51 1597.82L1188.9 1640.32L1115.28 1597.82L1115.28 1512.82zM1188.9 2235.32L1262.51 2277.82L1262.51 2362.82L1188.9 2405.32L1115.28 2362.82L1115.28 2277.82zM1188.9 2745.32L1262.51 2787.82L1262.51 2872.82L1188.9 2915.32L1115.28 2872.82L1115.28 2787.82zM1188.9 3255.32L1262.51 3297.82L1262.51 3382.82L1188.9 3425.32L1115.28 3382.82L1115.28 3297.82zM1188.9 3765.32L1262.51 3807.82L1262.51 3892.82L1188.9 3935.32L1115.28 3892.82L1115.28 3807.82zM1262.51 3892.82L1336.13 3935.32L1336.13 4020.32L1262.51 4062.82L1188.9 4020.32L1188.9 3935.32zM1409.74 322.82L1483.36 365.32L1483.36 450.32L1409.74 492.82L1336.13 450.32L1336.13 365.32zM1336.13 450.32L1409.74 492.82L1409.74 577.82L1336.13 620.32L1262.51 577.82L1262.51 492.82zM1409.74 577.82L1483.36 620.32L1483.36 705.32L1409.74 747.82L1336.13 705.32L1336.13 620.32zM1336.13 705.32L1409.74 747.82L1409.74 832.82L1336.13 875.32L1262.51 832.82L1262.51 747.82zM1336.13 960.32L1409.74 1002.82L1409.74 1087.82L1336.13 1130.32L1262.51 1087.82L1262.51 1002.82zM1409.74 1852.82L1483.36 1895.32L1483.36 1980.32L1409.74 2022.82L1336.13 1980.32L1336.13 1895.32zM1409.74 2362.82L1483.36 2405.32L1483.36 2490.32L1409.74 2532.82L1336.13 2490.32L1336.13 2405.32zM1336.13 2490.32L1409.74 2532.82L1409.74 2617.82L1336.13 2660.32L1262.51 2617.82L1262.51 2532.82zM1409.74 2617.82L1483.36 2660.32L1483.36 2745.32L1409.74 2787.82L1336.13 2745.32L1336.13 2660.32zM1409.74 3127.82L1483.36 3170.32L1483.36 3255.32L1409.74 3297.82L1336.13 3255.32L1336.13 3170.32zM1336.13 3255.32L1409.74 3297.82L1409.74 3382.82L1336.13 3425.32L1262.51 3382.82L1262.51 3297.82zM1409.74 3382.82L1483.36 3425.32L1483.36 3510.32L1409.74 3552.82L1336.13 3510.32L1336.13 3425.32zM1336.13 3510.32L1409.74 3552.82L1409.74 3637.82L1336.13 3680.32L1262.51 3637.82L1262.51 3552.82zM1409.74 3637.82L1483.36 3680.32L1483.36 3765.32L1409.74 3807.82L1336.13 3765.32L1336.13 3680.32zM1483.35 195.32L1556.97 237.82L1556.97 322.82L1483.35 365.32L1409.74 322.82L1409.74 237.82zM1556.97 577.82L1630.58 620.32L1630.58 705.32L1556.97 747.82L1483.35 705.32L1483.35 620.32zM1556.97 1342.82L1630.58 1385.32L1630.58 1470.32L1556.97 1512.82L1483.35 1470.32L1483.35 1385.32zM1483.35 1470.32L1556.97 1512.82L1556.97 1597.82L1483.35 1640.32L1409.74 1597.82L1409.74 1512.82zM1556.97 1597.82L1630.58 1640.32L1630.58 1725.32L1556.97 1767.82L1483.35 1725.32L1483.35 1640.32zM1556.97 1852.82L1630.58 1895.32L1630.58 1980.32L1556.97 2022.82L1483.35 1980.32L1483.35 1895.32zM1556.97 2107.82L1630.58 2150.32L1630.58 2235.32L1556.97 2277.82L1483.35 2235.32L1483.35 2150.32zM1556.97 2617.82L1630.58 2660.32L1630.58 2745.32L1556.97 2787.82L1483.35 2745.32L1483.35 2660.32zM1483.35 3000.32L1556.97 3042.82L1556.97 3127.82L1483.35 3170.32L1409.74 3127.82L1409.74 3042.82zM1630.58 -59.68L1704.2 -17.18L1704.2 67.82L1630.58 110.32L1556.97 67.82L1556.97 -17.18zM1630.58 450.32L1704.2 492.82L1704.2 577.82L1630.58 620.32L1556.97 577.82L1556.97 492.82zM1704.2 577.82L1777.81 620.32L1777.81 705.32L1704.2 747.82L1630.58 705.32L1630.58 620.32zM1630.58 705.32L1704.2 747.82L1704.2 832.82L1630.58 875.32L1556.97 832.82L1556.97 747.82zM1704.2 1087.82L1777.81 1130.32L1777.81 1215.32L1704.2 1257.82L1630.58 1215.32L1630.58 1130.32zM1704.2 1342.82L1777.81 1385.32L1777.81 1470.32L1704.2 1512.82L1630.58 1470.32L1630.58 1385.32zM1704.2 1852.82L1777.81 1895.32L1777.81 1980.32L1704.2 2022.82L1630.58 1980.32L1630.58 1895.32zM1630.58 2235.32L1704.2 2277.82L1704.2 2362.82L1630.58 2405.32L1556.97 2362.82L1556.97 2277.82zM1704.2 2617.82L1777.81 2660.32L1777.81 2745.32L1704.2 2787.82L1630.58 2745.32L1630.58 2660.32zM1704.2 2872.82L1777.81 2915.32L1777.81 3000.32L1704.2 3042.82L1630.58 3000.32L1630.58 2915.32zM1704.2 3127.82L1777.81 3170.32L1777.81 3255.32L1704.2 3297.82L1630.58 3255.32L1630.58 3170.32zM1704.2 3637.82L1777.81 3680.32L1777.81 3765.32L1704.2 3807.82L1630.58 3765.32L1630.58 3680.32zM1851.43 67.82L1925.04 110.32L1925.04 195.32L1851.43 237.82L1777.81 195.32L1777.81 110.32zM1851.43 577.82L1925.04 620.32L1925.04 705.32L1851.43 747.82L1777.81 705.32L1777.81 620.32zM1777.81 1215.32L1851.43 1257.82L1851.43 1342.82L1777.81 1385.32L1704.2 1342.82L1704.2 1257.82zM1851.43 1852.82L1925.04 1895.32L1925.04 1980.32L1851.43 2022.82L1777.81 1980.32L1777.81 1895.32zM1777.81 1980.32L1851.43 2022.82L1851.43 2107.82L1777.81 2150.32L1704.2 2107.82L1704.2 2022.82zM1777.81 2745.32L1851.43 2787.82L1851.43 2872.82L1777.81 2915.32L1704.2 2872.82L1704.2 2787.82zM1851.43 3382.82L1925.04 3425.32L1925.04 3510.32L1851.43 3552.82L1777.81 3510.32L1777.81 3425.32zM1851.43 3637.82L1925.04 3680.32L1925.04 3765.32L1851.43 3807.82L1777.81 3765.32L1777.81 3680.32zM1777.81 3765.32L1851.43 3807.82L1851.43 3892.82L1777.81 3935.32L1704.2 3892.82L1704.2 3807.82zM1998.65 67.82L2072.27 110.32L2072.27 195.32L1998.65 237.82L1925.04 195.32L1925.04 110.32zM1925.04 450.32L1998.65 492.82L1998.65 577.82L1925.04 620.32L1851.43 577.82L1851.43 492.82zM1998.65 577.82L2072.27 620.32L2072.27 705.32L1998.65 747.82L1925.04 705.32L1925.04 620.32zM1925.04 960.32L1998.65 1002.82L1998.65 1087.82L1925.04 1130.32L1851.43 1087.82L1851.43 1002.82zM1925.04 1725.32L1998.65 1767.82L1998.65 1852.82L1925.04 1895.32L1851.43 1852.82L1851.43 1767.82zM1998.65 2362.82L2072.27 2405.32L2072.27 2490.32L1998.65 2532.82L1925.04 2490.32L1925.04 2405.32zM1998.65 2617.82L2072.27 2660.32L2072.27 2745.32L1998.65 2787.82L1925.04 2745.32L1925.04 2660.32zM1925.04 2745.32L1998.65 2787.82L1998.65 2872.82L1925.04 2915.32L1851.43 2872.82L1851.43 2787.82zM1998.65 2872.82L2072.27 2915.32L2072.27 3000.32L1998.65 3042.82L1925.04 3000.32L1925.04 2915.32zM1925.04 3000.32L1998.65 3042.82L1998.65 3127.82L1925.04 3170.32L1851.43 3127.82L1851.43 3042.82zM1925.04 3510.32L1998.65 3552.82L1998.65 3637.82L1925.04 3680.32L1851.43 3637.82L1851.43 3552.82zM1925.04 3765.32L1998.65 3807.82L1998.65 3892.82L1925.04 3935.32L1851.43 3892.82L1851.43 3807.82z" stroke="rgba(226, 24, 24, 1)" stroke-width="2"></path><path d="M23.98 -52.99L88.93 -15.49L88.93 59.51L23.98 97.01L-40.97 59.51L-40.97 -15.49zM88.93 734.51L153.89 772.01L153.89 847.01L88.93 884.51L23.98 847.01L23.98 772.01zM23.98 1297.01L88.93 1334.51L88.93 1409.51L23.98 1447.01L-40.97 1409.51L-40.97 1334.51zM23.98 1522.01L88.93 1559.51L88.93 1634.51L23.98 1672.01L-40.97 1634.51L-40.97 1559.51zM23.98 1747.01L88.93 1784.51L88.93 1859.51L23.98 1897.01L-40.97 1859.51L-40.97 1784.51zM88.93 1859.51L153.89 1897.01L153.89 1972.01L88.93 2009.51L23.98 1972.01L23.98 1897.01zM153.89 847.01L218.84 884.51L218.84 959.51L153.89 997.01L88.93 959.51L88.93 884.51zM153.89 2197.01L218.84 2234.51L218.84 2309.51L153.89 2347.01L88.93 2309.51L88.93 2234.51zM218.84 2759.51L283.8 2797.01L283.8 2872.01L218.84 2909.51L153.89 2872.01L153.89 2797.01zM153.89 3322.01L218.84 3359.51L218.84 3434.51L153.89 3472.01L88.93 3434.51L88.93 3359.51zM283.8 -52.99L348.75 -15.49L348.75 59.51L283.8 97.01L218.84 59.51L218.84 -15.49zM283.8 1747.01L348.75 1784.51L348.75 1859.51L283.8 1897.01L218.84 1859.51L218.84 1784.51zM348.75 2084.51L413.7 2122.01L413.7 2197.01L348.75 2234.51L283.8 2197.01L283.8 2122.01zM478.66 509.51L543.61 547.01L543.61 622.01L478.66 659.51L413.7 622.01L413.7 547.01zM413.7 847.01L478.66 884.51L478.66 959.51L413.7 997.01L348.75 959.51L348.75 884.51zM413.7 2422.01L478.66 2459.51L478.66 2534.51L413.7 2572.01L348.75 2534.51L348.75 2459.51zM413.7 3097.01L478.66 3134.51L478.66 3209.51L413.7 3247.01L348.75 3209.51L348.75 3134.51zM478.66 3884.51L543.61 3922.01L543.61 3997.01L478.66 4034.51L413.7 3997.01L413.7 3922.01zM543.61 2197.01L608.56 2234.51L608.56 2309.51L543.61 2347.01L478.66 2309.51L478.66 2234.51zM543.61 2872.01L608.56 2909.51L608.56 2984.51L543.61 3022.01L478.66 2984.51L478.66 2909.51zM543.61 3772.01L608.56 3809.51L608.56 3884.51L543.61 3922.01L478.66 3884.51L478.66 3809.51zM738.47 59.51L803.43 97.01L803.43 172.01L738.47 209.51L673.52 172.01L673.52 97.01zM673.52 397.01L738.47 434.51L738.47 509.51L673.52 547.01L608.56 509.51L608.56 434.51zM673.52 622.01L738.47 659.51L738.47 734.51L673.52 772.01L608.56 734.51L608.56 659.51zM673.52 1972.01L738.47 2009.51L738.47 2084.51L673.52 2122.01L608.56 2084.51L608.56 2009.51zM673.52 2647.01L738.47 2684.51L738.47 2759.51L673.52 2797.01L608.56 2759.51L608.56 2684.51zM738.47 2759.51L803.43 2797.01L803.43 2872.01L738.47 2909.51L673.52 2872.01L673.52 2797.01zM738.47 3434.51L803.43 3472.01L803.43 3547.01L738.47 3584.51L673.52 3547.01L673.52 3472.01zM673.52 3772.01L738.47 3809.51L738.47 3884.51L673.52 3922.01L608.56 3884.51L608.56 3809.51zM738.47 3884.51L803.43 3922.01L803.43 3997.01L738.47 4034.51L673.52 3997.01L673.52 3922.01zM868.38 284.51L933.33 322.01L933.33 397.01L868.38 434.51L803.42 397.01L803.42 322.01zM803.42 1072.01L868.38 1109.51L868.38 1184.51L803.42 1222.01L738.47 1184.51L738.47 1109.51zM803.42 1297.01L868.38 1334.51L868.38 1409.51L803.42 1447.01L738.47 1409.51L738.47 1334.51zM803.42 1522.01L868.38 1559.51L868.38 1634.51L803.42 1672.01L738.47 1634.51L738.47 1559.51zM868.38 1634.51L933.33 1672.01L933.33 1747.01L868.38 1784.51L803.42 1747.01L803.42 1672.01zM868.38 2084.51L933.33 2122.01L933.33 2197.01L868.38 2234.51L803.42 2197.01L803.42 2122.01zM803.42 2422.01L868.38 2459.51L868.38 2534.51L803.42 2572.01L738.47 2534.51L738.47 2459.51zM933.33 622.01L998.29 659.51L998.29 734.51L933.33 772.01L868.38 734.51L868.38 659.51zM933.33 847.01L998.29 884.51L998.29 959.51L933.33 997.01L868.38 959.51L868.38 884.51zM998.29 959.51L1063.24 997.01L1063.24 1072.01L998.29 1109.51L933.33 1072.01L933.33 997.01zM933.33 1072.01L998.29 1109.51L998.29 1184.51L933.33 1222.01L868.38 1184.51L868.38 1109.51zM998.29 1859.51L1063.24 1897.01L1063.24 1972.01L998.29 2009.51L933.33 1972.01L933.33 1897.01zM998.29 2534.51L1063.24 2572.01L1063.24 2647.01L998.29 2684.51L933.33 2647.01L933.33 2572.01zM998.29 2984.51L1063.24 3022.01L1063.24 3097.01L998.29 3134.51L933.33 3097.01L933.33 3022.01zM933.33 3322.01L998.29 3359.51L998.29 3434.51L933.33 3472.01L868.38 3434.51L868.38 3359.51zM933.33 3997.01L998.29 4034.51L998.29 4109.51L933.33 4147.01L868.38 4109.51L868.38 4034.51zM1128.19 284.51L1193.15 322.01L1193.15 397.01L1128.19 434.51L1063.24 397.01L1063.24 322.01zM1063.24 622.01L1128.19 659.51L1128.19 734.51L1063.24 772.01L998.29 734.51L998.29 659.51zM1128.19 959.51L1193.15 997.01L1193.15 1072.01L1128.19 1109.51L1063.24 1072.01L1063.24 997.01zM1063.24 1297.01L1128.19 1334.51L1128.19 1409.51L1063.24 1447.01L998.29 1409.51L998.29 1334.51zM1063.24 1972.01L1128.19 2009.51L1128.19 2084.51L1063.24 2122.01L998.29 2084.51L998.29 2009.51zM1063.24 2197.01L1128.19 2234.51L1128.19 2309.51L1063.24 2347.01L998.29 2309.51L998.29 2234.51zM1063.24 2872.01L1128.19 2909.51L1128.19 2984.51L1063.24 3022.01L998.29 2984.51L998.29 2909.51zM1128.19 3434.51L1193.15 3472.01L1193.15 3547.01L1128.19 3584.51L1063.24 3547.01L1063.24 3472.01zM1063.24 3772.01L1128.19 3809.51L1128.19 3884.51L1063.24 3922.01L998.29 3884.51L998.29 3809.51zM1063.24 3997.01L1128.19 4034.51L1128.19 4109.51L1063.24 4147.01L998.29 4109.51L998.29 4034.51zM1193.15 -52.99L1258.1 -15.49L1258.1 59.51L1193.15 97.01L1128.19 59.51L1128.19 -15.49zM1258.1 284.51L1323.05 322.01L1323.05 397.01L1258.1 434.51L1193.15 397.01L1193.15 322.01zM1258.1 734.51L1323.05 772.01L1323.05 847.01L1258.1 884.51L1193.15 847.01L1193.15 772.01zM1193.15 1072.01L1258.1 1109.51L1258.1 1184.51L1193.15 1222.01L1128.19 1184.51L1128.19 1109.51zM1258.1 1184.51L1323.05 1222.01L1323.05 1297.01L1258.1 1334.51L1193.15 1297.01L1193.15 1222.01zM1193.15 1297.01L1258.1 1334.51L1258.1 1409.51L1193.15 1447.01L1128.19 1409.51L1128.19 1334.51zM1193.15 1522.01L1258.1 1559.51L1258.1 1634.51L1193.15 1672.01L1128.19 1634.51L1128.19 1559.51zM1258.1 3209.51L1323.05 3247.01L1323.05 3322.01L1258.1 3359.51L1193.15 3322.01L1193.15 3247.01zM1193.15 3772.01L1258.1 3809.51L1258.1 3884.51L1193.15 3922.01L1128.19 3884.51L1128.19 3809.51zM1323.06 -52.99L1388.01 -15.49L1388.01 59.51L1323.06 97.01L1258.1 59.51L1258.1 -15.49zM1388.01 284.51L1452.96 322.01L1452.96 397.01L1388.01 434.51L1323.06 397.01L1323.06 322.01zM1388.01 509.51L1452.96 547.01L1452.96 622.01L1388.01 659.51L1323.06 622.01L1323.06 547.01zM1323.06 1522.01L1388.01 1559.51L1388.01 1634.51L1323.06 1672.01L1258.1 1634.51L1258.1 1559.51zM1388.01 2534.51L1452.96 2572.01L1452.96 2647.01L1388.01 2684.51L1323.06 2647.01L1323.06 2572.01zM1388.01 3434.51L1452.96 3472.01L1452.96 3547.01L1388.01 3584.51L1323.06 3547.01L1323.06 3472.01zM1517.92 59.51L1582.87 97.01L1582.87 172.01L1517.92 209.51L1452.96 172.01L1452.96 97.01zM1517.92 284.51L1582.87 322.01L1582.87 397.01L1517.92 434.51L1452.96 397.01L1452.96 322.01zM1517.92 1184.51L1582.87 1222.01L1582.87 1297.01L1517.92 1334.51L1452.96 1297.01L1452.96 1222.01zM1517.92 1409.51L1582.87 1447.01L1582.87 1522.01L1517.92 1559.51L1452.96 1522.01L1452.96 1447.01zM1517.92 2309.51L1582.87 2347.01L1582.87 2422.01L1517.92 2459.51L1452.96 2422.01L1452.96 2347.01zM1452.96 2422.01L1517.92 2459.51L1517.92 2534.51L1452.96 2572.01L1388.01 2534.51L1388.01 2459.51zM1452.96 2872.01L1517.92 2909.51L1517.92 2984.51L1452.96 3022.01L1388.01 2984.51L1388.01 2909.51zM1517.92 3209.51L1582.87 3247.01L1582.87 3322.01L1517.92 3359.51L1452.96 3322.01L1452.96 3247.01zM1582.87 -52.99L1647.82 -15.49L1647.82 59.51L1582.87 97.01L1517.92 59.51L1517.92 -15.49zM1582.87 172.01L1647.82 209.51L1647.82 284.51L1582.87 322.01L1517.92 284.51L1517.92 209.51zM1582.87 622.01L1647.82 659.51L1647.82 734.51L1582.87 772.01L1517.92 734.51L1517.92 659.51zM1647.82 734.51L1712.78 772.01L1712.78 847.01L1647.82 884.51L1582.87 847.01L1582.87 772.01zM1582.87 1522.01L1647.82 1559.51L1647.82 1634.51L1582.87 1672.01L1517.92 1634.51L1517.92 1559.51zM1647.82 1634.51L1712.78 1672.01L1712.78 1747.01L1647.82 1784.51L1582.87 1747.01L1582.87 1672.01zM1647.82 2309.51L1712.78 2347.01L1712.78 2422.01L1647.82 2459.51L1582.87 2422.01L1582.87 2347.01zM1647.82 2759.51L1712.78 2797.01L1712.78 2872.01L1647.82 2909.51L1582.87 2872.01L1582.87 2797.01zM1647.82 2984.51L1712.78 3022.01L1712.78 3097.01L1647.82 3134.51L1582.87 3097.01L1582.87 3022.01zM1647.82 3209.51L1712.78 3247.01L1712.78 3322.01L1647.82 3359.51L1582.87 3322.01L1582.87 3247.01zM1712.78 622.01L1777.73 659.51L1777.73 734.51L1712.78 772.01L1647.82 734.51L1647.82 659.51zM1712.78 1072.01L1777.73 1109.51L1777.73 1184.51L1712.78 1222.01L1647.82 1184.51L1647.82 1109.51zM1777.73 1184.51L1842.68 1222.01L1842.68 1297.01L1777.73 1334.51L1712.78 1297.01L1712.78 1222.01zM1712.78 1972.01L1777.73 2009.51L1777.73 2084.51L1712.78 2122.01L1647.82 2084.51L1647.82 2009.51zM1777.73 2309.51L1842.68 2347.01L1842.68 2422.01L1777.73 2459.51L1712.78 2422.01L1712.78 2347.01zM1712.78 2647.01L1777.73 2684.51L1777.73 2759.51L1712.78 2797.01L1647.82 2759.51L1647.82 2684.51zM1777.73 3884.51L1842.68 3922.01L1842.68 3997.01L1777.73 4034.51L1712.78 3997.01L1712.78 3922.01zM1842.68 -52.99L1907.64 -15.49L1907.64 59.51L1842.68 97.01L1777.73 59.51L1777.73 -15.49zM1907.64 59.51L1972.59 97.01L1972.59 172.01L1907.64 209.51L1842.68 172.01L1842.68 97.01zM1842.68 397.01L1907.64 434.51L1907.64 509.51L1842.68 547.01L1777.73 509.51L1777.73 434.51zM1907.64 734.51L1972.59 772.01L1972.59 847.01L1907.64 884.51L1842.68 847.01L1842.68 772.01zM1842.68 847.01L1907.64 884.51L1907.64 959.51L1842.68 997.01L1777.73 959.51L1777.73 884.51zM1842.68 1297.01L1907.64 1334.51L1907.64 1409.51L1842.68 1447.01L1777.73 1409.51L1777.73 1334.51zM1907.64 1859.51L1972.59 1897.01L1972.59 1972.01L1907.64 2009.51L1842.68 1972.01L1842.68 1897.01zM1907.64 2084.51L1972.59 2122.01L1972.59 2197.01L1907.64 2234.51L1842.68 2197.01L1842.68 2122.01zM1907.64 2759.51L1972.59 2797.01L1972.59 2872.01L1907.64 2909.51L1842.68 2872.01L1842.68 2797.01zM1907.64 2984.51L1972.59 3022.01L1972.59 3097.01L1907.64 3134.51L1842.68 3097.01L1842.68 3022.01zM1907.64 3434.51L1972.59 3472.01L1972.59 3547.01L1907.64 3584.51L1842.68 3547.01L1842.68 3472.01zM1842.68 3547.01L1907.64 3584.51L1907.64 3659.51L1842.68 3697.01L1777.73 3659.51L1777.73 3584.51zM1907.64 3659.51L1972.59 3697.01L1972.59 3772.01L1907.64 3809.51L1842.68 3772.01L1842.68 3697.01zM1842.68 3997.01L1907.64 4034.51L1907.64 4109.51L1842.68 4147.01L1777.73 4109.51L1777.73 4034.51zM2037.55 59.51L2102.5 97.01L2102.5 172.01L2037.55 209.51L1972.59 172.01L1972.59 97.01zM1972.59 622.01L2037.55 659.51L2037.55 734.51L1972.59 772.01L1907.64 734.51L1907.64 659.51zM1972.59 1522.01L2037.55 1559.51L2037.55 1634.51L1972.59 1672.01L1907.64 1634.51L1907.64 1559.51zM1972.59 1972.01L2037.55 2009.51L2037.55 2084.51L1972.59 2122.01L1907.64 2084.51L1907.64 2009.51zM1972.59 2647.01L2037.55 2684.51L2037.55 2759.51L1972.59 2797.01L1907.64 2759.51L1907.64 2684.51zM2037.55 2759.51L2102.5 2797.01L2102.5 2872.01L2037.55 2909.51L1972.59 2872.01L1972.59 2797.01zM1972.59 2872.01L2037.55 2909.51L2037.55 2984.51L1972.59 3022.01L1907.64 2984.51L1907.64 2909.51zM2037.55 3884.51L2102.5 3922.01L2102.5 3997.01L2037.55 4034.51L1972.59 3997.01L1972.59 3922.01z" stroke="rgba(2, 33, 63, 1)" stroke-width="2"></path><path d="M36.81 313.93L64.53 329.93L64.53 361.93L36.81 377.93L9.1 361.93L9.1 329.93zM36.81 409.93L64.53 425.93L64.53 457.93L36.81 473.93L9.1 457.93L9.1 425.93zM9.1 649.93L36.81 665.93L36.81 697.93L9.1 713.93L-18.61 697.93L-18.61 665.93zM36.81 1657.93L64.53 1673.93L64.53 1705.93L36.81 1721.93L9.1 1705.93L9.1 1673.93zM9.1 2665.93L36.81 2681.93L36.81 2713.93L9.1 2729.93L-18.61 2713.93L-18.61 2681.93zM9.1 3337.93L36.81 3353.93L36.81 3385.93L9.1 3401.93L-18.61 3385.93L-18.61 3353.93zM36.81 3961.93L64.53 3977.93L64.53 4009.93L36.81 4025.93L9.1 4009.93L9.1 3977.93zM92.24 25.93L119.95 41.93L119.95 73.93L92.24 89.93L64.53 73.93L64.53 41.93zM64.53 361.93L92.24 377.93L92.24 409.93L64.53 425.93L36.81 409.93L36.81 377.93zM92.24 409.93L119.95 425.93L119.95 457.93L92.24 473.93L64.53 457.93L64.53 425.93zM64.53 649.93L92.24 665.93L92.24 697.93L64.53 713.93L36.81 697.93L36.81 665.93zM92.24 985.93L119.95 1001.93L119.95 1033.93L92.24 1049.93L64.53 1033.93L64.53 1001.93zM64.53 1129.93L92.24 1145.93L92.24 1177.93L64.53 1193.93L36.81 1177.93L36.81 1145.93zM64.53 1321.93L92.24 1337.93L92.24 1369.93L64.53 1385.93L36.81 1369.93L36.81 1337.93zM92.24 2329.93L119.95 2345.93L119.95 2377.93L92.24 2393.93L64.53 2377.93L64.53 2345.93zM92.24 2521.93L119.95 2537.93L119.95 2569.93L92.24 2585.93L64.53 2569.93L64.53 2537.93zM92.24 2617.93L119.95 2633.93L119.95 2665.93L92.24 2681.93L64.53 2665.93L64.53 2633.93zM92.24 3001.93L119.95 3017.93L119.95 3049.93L92.24 3065.93L64.53 3049.93L64.53 3017.93zM92.24 3481.93L119.95 3497.93L119.95 3529.93L92.24 3545.93L64.53 3529.93L64.53 3497.93zM64.53 3625.93L92.24 3641.93L92.24 3673.93L64.53 3689.93L36.81 3673.93L36.81 3641.93zM64.53 3721.93L92.24 3737.93L92.24 3769.93L64.53 3785.93L36.81 3769.93L36.81 3737.93zM119.95 -22.07L147.67 -6.07L147.67 25.93L119.95 41.93L92.24 25.93L92.24 -6.07zM119.95 2281.93L147.67 2297.93L147.67 2329.93L119.95 2345.93L92.24 2329.93L92.24 2297.93zM119.95 3145.93L147.67 3161.93L147.67 3193.93L119.95 3209.93L92.24 3193.93L92.24 3161.93zM147.67 3961.93L175.38 3977.93L175.38 4009.93L147.67 4025.93L119.95 4009.93L119.95 3977.93zM175.38 553.93L203.1 569.93L203.1 601.93L175.38 617.93L147.67 601.93L147.67 569.93zM203.1 697.93L230.81 713.93L230.81 745.93L203.1 761.93L175.38 745.93L175.38 713.93zM175.38 841.93L203.1 857.93L203.1 889.93L175.38 905.93L147.67 889.93L147.67 857.93zM203.1 1081.93L230.81 1097.93L230.81 1129.93L203.1 1145.93L175.38 1129.93L175.38 1097.93zM175.38 2665.93L203.1 2681.93L203.1 2713.93L175.38 2729.93L147.67 2713.93L147.67 2681.93zM175.38 3145.93L203.1 3161.93L203.1 3193.93L175.38 3209.93L147.67 3193.93L147.67 3161.93zM203.1 3193.93L230.81 3209.93L230.81 3241.93L203.1 3257.93L175.38 3241.93L175.38 3209.93zM203.1 3577.93L230.81 3593.93L230.81 3625.93L203.1 3641.93L175.38 3625.93L175.38 3593.93zM258.52 25.93L286.24 41.93L286.24 73.93L258.52 89.93L230.81 73.93L230.81 41.93zM258.52 1081.93L286.24 1097.93L286.24 1129.93L258.52 1145.93L230.81 1129.93L230.81 1097.93zM230.81 1513.93L258.52 1529.93L258.52 1561.93L230.81 1577.93L203.1 1561.93L203.1 1529.93zM230.81 2569.93L258.52 2585.93L258.52 2617.93L230.81 2633.93L203.1 2617.93L203.1 2585.93zM230.81 2665.93L258.52 2681.93L258.52 2713.93L230.81 2729.93L203.1 2713.93L203.1 2681.93zM230.81 3049.93L258.52 3065.93L258.52 3097.93L230.81 3113.93L203.1 3097.93L203.1 3065.93zM230.81 3145.93L258.52 3161.93L258.52 3193.93L230.81 3209.93L203.1 3193.93L203.1 3161.93zM286.24 457.93L313.95 473.93L313.95 505.93L286.24 521.93L258.52 505.93L258.52 473.93zM286.24 553.93L313.95 569.93L313.95 601.93L286.24 617.93L258.52 601.93L258.52 569.93zM313.95 697.93L341.66 713.93L341.66 745.93L313.95 761.93L286.24 745.93L286.24 713.93zM313.95 1369.93L341.66 1385.93L341.66 1417.93L313.95 1433.93L286.24 1417.93L286.24 1385.93zM313.95 1753.93L341.66 1769.93L341.66 1801.93L313.95 1817.93L286.24 1801.93L286.24 1769.93zM313.95 1945.93L341.66 1961.93L341.66 1993.93L313.95 2009.93L286.24 1993.93L286.24 1961.93zM313.95 2329.93L341.66 2345.93L341.66 2377.93L313.95 2393.93L286.24 2377.93L286.24 2345.93zM286.24 3049.93L313.95 3065.93L313.95 3097.93L286.24 3113.93L258.52 3097.93L258.52 3065.93zM286.24 3145.93L313.95 3161.93L313.95 3193.93L286.24 3209.93L258.52 3193.93L258.52 3161.93zM286.24 3241.93L313.95 3257.93L313.95 3289.93L286.24 3305.93L258.52 3289.93L258.52 3257.93zM341.66 -22.07L369.38 -6.07L369.38 25.93L341.66 41.93L313.95 25.93L313.95 -6.07zM369.38 697.93L397.09 713.93L397.09 745.93L369.38 761.93L341.66 745.93L341.66 713.93zM369.38 2041.93L397.09 2057.93L397.09 2089.93L369.38 2105.93L341.66 2089.93L341.66 2057.93zM369.38 2905.93L397.09 2921.93L397.09 2953.93L369.38 2969.93L341.66 2953.93L341.66 2921.93zM369.38 3769.93L397.09 3785.93L397.09 3817.93L369.38 3833.93L341.66 3817.93L341.66 3785.93zM369.38 3865.93L397.09 3881.93L397.09 3913.93L369.38 3929.93L341.66 3913.93L341.66 3881.93zM424.8 121.93L452.52 137.93L452.52 169.93L424.8 185.93L397.09 169.93L397.09 137.93zM424.8 793.93L452.52 809.93L452.52 841.93L424.8 857.93L397.09 841.93L397.09 809.93zM397.09 1321.93L424.8 1337.93L424.8 1369.93L397.09 1385.93L369.38 1369.93L369.38 1337.93zM424.8 1465.93L452.52 1481.93L452.52 1513.93L424.8 1529.93L397.09 1513.93L397.09 1481.93zM397.09 1897.93L424.8 1913.93L424.8 1945.93L397.09 1961.93L369.38 1945.93L369.38 1913.93zM424.8 3193.93L452.52 3209.93L452.52 3241.93L424.8 3257.93L397.09 3241.93L397.09 3209.93zM452.52 169.93L480.23 185.93L480.23 217.93L452.52 233.93L424.8 217.93L424.8 185.93zM480.23 889.93L507.94 905.93L507.94 937.93L480.23 953.93L452.52 937.93L452.52 905.93zM452.52 1033.93L480.23 1049.93L480.23 1081.93L452.52 1097.93L424.8 1081.93L424.8 1049.93zM452.52 2665.93L480.23 2681.93L480.23 2713.93L452.52 2729.93L424.8 2713.93L424.8 2681.93zM452.52 2857.93L480.23 2873.93L480.23 2905.93L452.52 2921.93L424.8 2905.93L424.8 2873.93zM480.23 3481.93L507.94 3497.93L507.94 3529.93L480.23 3545.93L452.52 3529.93L452.52 3497.93zM535.66 121.93L563.37 137.93L563.37 169.93L535.66 185.93L507.94 169.93L507.94 137.93zM507.94 1033.93L535.66 1049.93L535.66 1081.93L507.94 1097.93L480.23 1081.93L480.23 1049.93zM535.66 1177.93L563.37 1193.93L563.37 1225.93L535.66 1241.93L507.94 1225.93L507.94 1193.93zM507.94 1705.93L535.66 1721.93L535.66 1753.93L507.94 1769.93L480.23 1753.93L480.23 1721.93zM535.66 1945.93L563.37 1961.93L563.37 1993.93L535.66 2009.93L507.94 1993.93L507.94 1961.93zM535.66 3097.93L563.37 3113.93L563.37 3145.93L535.66 3161.93L507.94 3145.93L507.94 3113.93zM507.94 3337.93L535.66 3353.93L535.66 3385.93L507.94 3401.93L480.23 3385.93L480.23 3353.93zM535.66 3385.93L563.37 3401.93L563.37 3433.93L535.66 3449.93L507.94 3433.93L507.94 3401.93zM507.94 3913.93L535.66 3929.93L535.66 3961.93L507.94 3977.93L480.23 3961.93L480.23 3929.93zM591.09 217.93L618.8 233.93L618.8 265.93L591.09 281.93L563.37 265.93L563.37 233.93zM563.37 265.93L591.09 281.93L591.09 313.93L563.37 329.93L535.66 313.93L535.66 281.93zM591.09 1657.93L618.8 1673.93L618.8 1705.93L591.09 1721.93L563.37 1705.93L563.37 1673.93zM563.37 1897.93L591.09 1913.93L591.09 1945.93L563.37 1961.93L535.66 1945.93L535.66 1913.93zM591.09 2233.93L618.8 2249.93L618.8 2281.93L591.09 2297.93L563.37 2281.93L563.37 2249.93zM563.37 3049.93L591.09 3065.93L591.09 3097.93L563.37 3113.93L535.66 3097.93L535.66 3065.93zM591.09 3481.93L618.8 3497.93L618.8 3529.93L591.09 3545.93L563.37 3529.93L563.37 3497.93zM591.09 3865.93L618.8 3881.93L618.8 3913.93L591.09 3929.93L563.37 3913.93L563.37 3881.93zM618.8 553.93L646.51 569.93L646.51 601.93L618.8 617.93L591.09 601.93L591.09 569.93zM646.51 697.93L674.23 713.93L674.23 745.93L646.51 761.93L618.8 745.93L618.8 713.93zM646.51 1177.93L674.23 1193.93L674.23 1225.93L646.51 1241.93L618.8 1225.93L618.8 1193.93zM618.8 1513.93L646.51 1529.93L646.51 1561.93L618.8 1577.93L591.09 1561.93L591.09 1529.93zM646.51 2137.93L674.23 2153.93L674.23 2185.93L646.51 2201.93L618.8 2185.93L618.8 2153.93zM646.51 2329.93L674.23 2345.93L674.23 2377.93L646.51 2393.93L618.8 2377.93L618.8 2345.93zM618.8 2377.93L646.51 2393.93L646.51 2425.93L618.8 2441.93L591.09 2425.93L591.09 2393.93zM646.51 3193.93L674.23 3209.93L674.23 3241.93L646.51 3257.93L618.8 3241.93L618.8 3209.93zM701.94 1273.93L729.65 1289.93L729.65 1321.93L701.94 1337.93L674.23 1321.93L674.23 1289.93zM701.94 1561.93L729.65 1577.93L729.65 1609.93L701.94 1625.93L674.23 1609.93L674.23 1577.93zM674.23 2281.93L701.94 2297.93L701.94 2329.93L674.23 2345.93L646.51 2329.93L646.51 2297.93zM701.94 2425.93L729.65 2441.93L729.65 2473.93L701.94 2489.93L674.23 2473.93L674.23 2441.93zM674.23 2761.93L701.94 2777.93L701.94 2809.93L674.23 2825.93L646.51 2809.93L646.51 2777.93zM757.37 985.93L785.08 1001.93L785.08 1033.93L757.37 1049.93L729.65 1033.93L729.65 1001.93zM729.65 1033.93L757.37 1049.93L757.37 1081.93L729.65 1097.93L701.94 1081.93L701.94 1049.93zM729.65 1225.93L757.37 1241.93L757.37 1273.93L729.65 1289.93L701.94 1273.93L701.94 1241.93zM757.37 2617.93L785.08 2633.93L785.08 2665.93L757.37 2681.93L729.65 2665.93L729.65 2633.93zM757.37 2713.93L785.08 2729.93L785.08 2761.93L757.37 2777.93L729.65 2761.93L729.65 2729.93zM757.37 2809.93L785.08 2825.93L785.08 2857.93L757.37 2873.93L729.65 2857.93L729.65 2825.93zM757.37 3673.93L785.08 3689.93L785.08 3721.93L757.37 3737.93L729.65 3721.93L729.65 3689.93zM729.65 3817.93L757.37 3833.93L757.37 3865.93L729.65 3881.93L701.94 3865.93L701.94 3833.93zM757.37 3961.93L785.08 3977.93L785.08 4009.93L757.37 4025.93L729.65 4009.93L729.65 3977.93zM812.79 25.93L840.51 41.93L840.51 73.93L812.79 89.93L785.08 73.93L785.08 41.93zM812.79 409.93L840.51 425.93L840.51 457.93L812.79 473.93L785.08 457.93L785.08 425.93zM812.79 697.93L840.51 713.93L840.51 745.93L812.79 761.93L785.08 745.93L785.08 713.93zM785.08 937.93L812.79 953.93L812.79 985.93L785.08 1001.93L757.37 985.93L757.37 953.93zM785.08 1225.93L812.79 1241.93L812.79 1273.93L785.08 1289.93L757.37 1273.93L757.37 1241.93zM812.79 1753.93L840.51 1769.93L840.51 1801.93L812.79 1817.93L785.08 1801.93L785.08 1769.93zM812.79 1849.93L840.51 1865.93L840.51 1897.93L812.79 1913.93L785.08 1897.93L785.08 1865.93zM812.79 1945.93L840.51 1961.93L840.51 1993.93L812.79 2009.93L785.08 1993.93L785.08 1961.93zM812.79 2809.93L840.51 2825.93L840.51 2857.93L812.79 2873.93L785.08 2857.93L785.08 2825.93zM785.08 2953.93L812.79 2969.93L812.79 3001.93L785.08 3017.93L757.37 3001.93L757.37 2969.93zM785.08 3145.93L812.79 3161.93L812.79 3193.93L785.08 3209.93L757.37 3193.93L757.37 3161.93zM812.79 3289.93L840.51 3305.93L840.51 3337.93L812.79 3353.93L785.08 3337.93L785.08 3305.93zM785.08 3817.93L812.79 3833.93L812.79 3865.93L785.08 3881.93L757.37 3865.93L757.37 3833.93zM868.22 25.93L895.94 41.93L895.94 73.93L868.22 89.93L840.51 73.93L840.51 41.93zM868.22 505.93L895.94 521.93L895.94 553.93L868.22 569.93L840.51 553.93L840.51 521.93zM840.51 649.93L868.22 665.93L868.22 697.93L840.51 713.93L812.79 697.93L812.79 665.93zM868.22 1273.93L895.94 1289.93L895.94 1321.93L868.22 1337.93L840.51 1321.93L840.51 1289.93zM868.22 2233.93L895.94 2249.93L895.94 2281.93L868.22 2297.93L840.51 2281.93L840.51 2249.93zM840.51 2281.93L868.22 2297.93L868.22 2329.93L840.51 2345.93L812.79 2329.93L812.79 2297.93zM868.22 2329.93L895.94 2345.93L895.94 2377.93L868.22 2393.93L840.51 2377.93L840.51 2345.93zM840.51 2473.93L868.22 2489.93L868.22 2521.93L840.51 2537.93L812.79 2521.93L812.79 2489.93zM868.22 3001.93L895.94 3017.93L895.94 3049.93L868.22 3065.93L840.51 3049.93L840.51 3017.93zM868.22 3193.93L895.94 3209.93L895.94 3241.93L868.22 3257.93L840.51 3241.93L840.51 3209.93zM868.22 3385.93L895.94 3401.93L895.94 3433.93L868.22 3449.93L840.51 3433.93L840.51 3401.93zM895.94 -22.07L923.65 -6.07L923.65 25.93L895.94 41.93L868.22 25.93L868.22 -6.07zM923.65 409.93L951.36 425.93L951.36 457.93L923.65 473.93L895.94 457.93L895.94 425.93zM923.65 601.93L951.36 617.93L951.36 649.93L923.65 665.93L895.94 649.93L895.94 617.93zM923.65 793.93L951.36 809.93L951.36 841.93L923.65 857.93L895.94 841.93L895.94 809.93zM895.94 937.93L923.65 953.93L923.65 985.93L895.94 1001.93L868.22 985.93L868.22 953.93zM895.94 1321.93L923.65 1337.93L923.65 1369.93L895.94 1385.93L868.22 1369.93L868.22 1337.93zM895.94 1993.93L923.65 2009.93L923.65 2041.93L895.94 2057.93L868.22 2041.93L868.22 2009.93zM895.94 2761.93L923.65 2777.93L923.65 2809.93L895.94 2825.93L868.22 2809.93L868.22 2777.93zM923.65 3097.93L951.36 3113.93L951.36 3145.93L923.65 3161.93L895.94 3145.93L895.94 3113.93zM895.94 3529.93L923.65 3545.93L923.65 3577.93L895.94 3593.93L868.22 3577.93L868.22 3545.93zM951.36 937.93L979.08 953.93L979.08 985.93L951.36 1001.93L923.65 985.93L923.65 953.93zM979.08 985.93L1006.79 1001.93L1006.79 1033.93L979.08 1049.93L951.36 1033.93L951.36 1001.93zM951.36 1129.93L979.08 1145.93L979.08 1177.93L951.36 1193.93L923.65 1177.93L923.65 1145.93zM951.36 3721.93L979.08 3737.93L979.08 3769.93L951.36 3785.93L923.65 3769.93L923.65 3737.93zM1034.5 409.93L1062.22 425.93L1062.22 457.93L1034.5 473.93L1006.79 457.93L1006.79 425.93zM1034.5 505.93L1062.22 521.93L1062.22 553.93L1034.5 569.93L1006.79 553.93L1006.79 521.93zM1034.5 697.93L1062.22 713.93L1062.22 745.93L1034.5 761.93L1006.79 745.93L1006.79 713.93zM1034.5 1177.93L1062.22 1193.93L1062.22 1225.93L1034.5 1241.93L1006.79 1225.93L1006.79 1193.93zM1034.5 1465.93L1062.22 1481.93L1062.22 1513.93L1034.5 1529.93L1006.79 1513.93L1006.79 1481.93zM1034.5 2425.93L1062.22 2441.93L1062.22 2473.93L1034.5 2489.93L1006.79 2473.93L1006.79 2441.93zM1034.5 3481.93L1062.22 3497.93L1062.22 3529.93L1034.5 3545.93L1006.79 3529.93L1006.79 3497.93zM1062.22 937.93L1089.93 953.93L1089.93 985.93L1062.22 1001.93L1034.5 985.93L1034.5 953.93zM1089.93 1465.93L1117.64 1481.93L1117.64 1513.93L1089.93 1529.93L1062.22 1513.93L1062.22 1481.93zM1062.22 2281.93L1089.93 2297.93L1089.93 2329.93L1062.22 2345.93L1034.5 2329.93L1034.5 2297.93zM1089.93 2521.93L1117.64 2537.93L1117.64 2569.93L1089.93 2585.93L1062.22 2569.93L1062.22 2537.93zM1062.22 3337.93L1089.93 3353.93L1089.93 3385.93L1062.22 3401.93L1034.5 3385.93L1034.5 3353.93zM1062.22 3625.93L1089.93 3641.93L1089.93 3673.93L1062.22 3689.93L1034.5 3673.93L1034.5 3641.93zM1145.36 1273.93L1173.07 1289.93L1173.07 1321.93L1145.36 1337.93L1117.64 1321.93L1117.64 1289.93zM1145.36 1369.93L1173.07 1385.93L1173.07 1417.93L1145.36 1433.93L1117.64 1417.93L1117.64 1385.93zM1145.36 1465.93L1173.07 1481.93L1173.07 1513.93L1145.36 1529.93L1117.64 1513.93L1117.64 1481.93zM1117.64 1897.93L1145.36 1913.93L1145.36 1945.93L1117.64 1961.93L1089.93 1945.93L1089.93 1913.93zM1117.64 2089.93L1145.36 2105.93L1145.36 2137.93L1117.64 2153.93L1089.93 2137.93L1089.93 2105.93zM1145.36 2329.93L1173.07 2345.93L1173.07 2377.93L1145.36 2393.93L1117.64 2377.93L1117.64 2345.93zM1117.64 2953.93L1145.36 2969.93L1145.36 3001.93L1117.64 3017.93L1089.93 3001.93L1089.93 2969.93zM1117.64 3241.93L1145.36 3257.93L1145.36 3289.93L1117.64 3305.93L1089.93 3289.93L1089.93 3257.93zM1200.78 1177.93L1228.5 1193.93L1228.5 1225.93L1200.78 1241.93L1173.07 1225.93L1173.07 1193.93zM1173.07 1417.93L1200.78 1433.93L1200.78 1465.93L1173.07 1481.93L1145.36 1465.93L1145.36 1433.93zM1200.78 1753.93L1228.5 1769.93L1228.5 1801.93L1200.78 1817.93L1173.07 1801.93L1173.07 1769.93zM1173.07 3049.93L1200.78 3065.93L1200.78 3097.93L1173.07 3113.93L1145.36 3097.93L1145.36 3065.93zM1200.78 3385.93L1228.5 3401.93L1228.5 3433.93L1200.78 3449.93L1173.07 3433.93L1173.07 3401.93zM1173.07 3433.93L1200.78 3449.93L1200.78 3481.93L1173.07 3497.93L1145.36 3481.93L1145.36 3449.93zM1200.78 3865.93L1228.5 3881.93L1228.5 3913.93L1200.78 3929.93L1173.07 3913.93L1173.07 3881.93zM1228.5 457.93L1256.21 473.93L1256.21 505.93L1228.5 521.93L1200.78 505.93L1200.78 473.93zM1256.21 505.93L1283.93 521.93L1283.93 553.93L1256.21 569.93L1228.5 553.93L1228.5 521.93zM1256.21 1273.93L1283.93 1289.93L1283.93 1321.93L1256.21 1337.93L1228.5 1321.93L1228.5 1289.93zM1228.5 2185.93L1256.21 2201.93L1256.21 2233.93L1228.5 2249.93L1200.78 2233.93L1200.78 2201.93zM1256.21 2713.93L1283.93 2729.93L1283.93 2761.93L1256.21 2777.93L1228.5 2761.93L1228.5 2729.93zM1256.21 3481.93L1283.93 3497.93L1283.93 3529.93L1256.21 3545.93L1228.5 3529.93L1228.5 3497.93zM1228.5 3625.93L1256.21 3641.93L1256.21 3673.93L1228.5 3689.93L1200.78 3673.93L1200.78 3641.93zM1228.5 3817.93L1256.21 3833.93L1256.21 3865.93L1228.5 3881.93L1200.78 3865.93L1200.78 3833.93zM1311.64 313.93L1339.35 329.93L1339.35 361.93L1311.64 377.93L1283.93 361.93L1283.93 329.93zM1311.64 409.93L1339.35 425.93L1339.35 457.93L1311.64 473.93L1283.93 457.93L1283.93 425.93zM1311.64 601.93L1339.35 617.93L1339.35 649.93L1311.64 665.93L1283.93 649.93L1283.93 617.93zM1283.93 1225.93L1311.64 1241.93L1311.64 1273.93L1283.93 1289.93L1256.21 1273.93L1256.21 1241.93zM1283.93 1705.93L1311.64 1721.93L1311.64 1753.93L1283.93 1769.93L1256.21 1753.93L1256.21 1721.93zM1283.93 1801.93L1311.64 1817.93L1311.64 1849.93L1283.93 1865.93L1256.21 1849.93L1256.21 1817.93zM1283.93 1897.93L1311.64 1913.93L1311.64 1945.93L1283.93 1961.93L1256.21 1945.93L1256.21 1913.93zM1311.64 1945.93L1339.35 1961.93L1339.35 1993.93L1311.64 2009.93L1283.93 1993.93L1283.93 1961.93zM1311.64 2041.93L1339.35 2057.93L1339.35 2089.93L1311.64 2105.93L1283.93 2089.93L1283.93 2057.93zM1311.64 2425.93L1339.35 2441.93L1339.35 2473.93L1311.64 2489.93L1283.93 2473.93L1283.93 2441.93zM1311.64 2713.93L1339.35 2729.93L1339.35 2761.93L1311.64 2777.93L1283.93 2761.93L1283.93 2729.93zM1311.64 3097.93L1339.35 3113.93L1339.35 3145.93L1311.64 3161.93L1283.93 3145.93L1283.93 3113.93zM1311.64 3577.93L1339.35 3593.93L1339.35 3625.93L1311.64 3641.93L1283.93 3625.93L1283.93 3593.93zM1339.35 -22.07L1367.07 -6.07L1367.07 25.93L1339.35 41.93L1311.64 25.93L1311.64 -6.07zM1339.35 745.93L1367.07 761.93L1367.07 793.93L1339.35 809.93L1311.64 793.93L1311.64 761.93zM1339.35 1993.93L1367.07 2009.93L1367.07 2041.93L1339.35 2057.93L1311.64 2041.93L1311.64 2009.93zM1367.07 2329.93L1394.78 2345.93L1394.78 2377.93L1367.07 2393.93L1339.35 2377.93L1339.35 2345.93zM1339.35 2665.93L1367.07 2681.93L1367.07 2713.93L1339.35 2729.93L1311.64 2713.93L1311.64 2681.93zM1367.07 2905.93L1394.78 2921.93L1394.78 2953.93L1367.07 2969.93L1339.35 2953.93L1339.35 2921.93zM1339.35 3049.93L1367.07 3065.93L1367.07 3097.93L1339.35 3113.93L1311.64 3097.93L1311.64 3065.93zM1367.07 3961.93L1394.78 3977.93L1394.78 4009.93L1367.07 4025.93L1339.35 4009.93L1339.35 3977.93zM1394.78 361.93L1422.49 377.93L1422.49 409.93L1394.78 425.93L1367.07 409.93L1367.07 377.93zM1422.49 409.93L1450.21 425.93L1450.21 457.93L1422.49 473.93L1394.78 457.93L1394.78 425.93zM1394.78 937.93L1422.49 953.93L1422.49 985.93L1394.78 1001.93L1367.07 985.93L1367.07 953.93zM1394.78 1129.93L1422.49 1145.93L1422.49 1177.93L1394.78 1193.93L1367.07 1177.93L1367.07 1145.93zM1422.49 2041.93L1450.21 2057.93L1450.21 2089.93L1422.49 2105.93L1394.78 2089.93L1394.78 2057.93zM1422.49 2329.93L1450.21 2345.93L1450.21 2377.93L1422.49 2393.93L1394.78 2377.93L1394.78 2345.93zM1394.78 2665.93L1422.49 2681.93L1422.49 2713.93L1394.78 2729.93L1367.07 2713.93L1367.07 2681.93zM1394.78 2761.93L1422.49 2777.93L1422.49 2809.93L1394.78 2825.93L1367.07 2809.93L1367.07 2777.93zM1394.78 3145.93L1422.49 3161.93L1422.49 3193.93L1394.78 3209.93L1367.07 3193.93L1367.07 3161.93zM1394.78 3433.93L1422.49 3449.93L1422.49 3481.93L1394.78 3497.93L1367.07 3481.93L1367.07 3449.93zM1422.49 3673.93L1450.21 3689.93L1450.21 3721.93L1422.49 3737.93L1394.78 3721.93L1394.78 3689.93zM1422.49 3769.93L1450.21 3785.93L1450.21 3817.93L1422.49 3833.93L1394.78 3817.93L1394.78 3785.93zM1394.78 3817.93L1422.49 3833.93L1422.49 3865.93L1394.78 3881.93L1367.07 3865.93L1367.07 3833.93zM1450.21 -22.07L1477.92 -6.07L1477.92 25.93L1450.21 41.93L1422.49 25.93L1422.49 -6.07zM1450.21 169.93L1477.92 185.93L1477.92 217.93L1450.21 233.93L1422.49 217.93L1422.49 185.93zM1450.21 361.93L1477.92 377.93L1477.92 409.93L1450.21 425.93L1422.49 409.93L1422.49 377.93zM1450.21 457.93L1477.92 473.93L1477.92 505.93L1450.21 521.93L1422.49 505.93L1422.49 473.93zM1477.92 601.93L1505.63 617.93L1505.63 649.93L1477.92 665.93L1450.21 649.93L1450.21 617.93zM1477.92 3577.93L1505.63 3593.93L1505.63 3625.93L1477.92 3641.93L1450.21 3625.93L1450.21 3593.93zM1505.63 745.93L1533.35 761.93L1533.35 793.93L1505.63 809.93L1477.92 793.93L1477.92 761.93zM1533.35 1177.93L1561.06 1193.93L1561.06 1225.93L1533.35 1241.93L1505.63 1225.93L1505.63 1193.93zM1533.35 1273.93L1561.06 1289.93L1561.06 1321.93L1533.35 1337.93L1505.63 1321.93L1505.63 1289.93zM1505.63 1609.93L1533.35 1625.93L1533.35 1657.93L1505.63 1673.93L1477.92 1657.93L1477.92 1625.93zM1505.63 2473.93L1533.35 2489.93L1533.35 2521.93L1505.63 2537.93L1477.92 2521.93L1477.92 2489.93zM1533.35 3289.93L1561.06 3305.93L1561.06 3337.93L1533.35 3353.93L1505.63 3337.93L1505.63 3305.93zM1533.35 3865.93L1561.06 3881.93L1561.06 3913.93L1533.35 3929.93L1505.63 3913.93L1505.63 3881.93zM1588.78 121.93L1616.49 137.93L1616.49 169.93L1588.78 185.93L1561.06 169.93L1561.06 137.93zM1588.78 217.93L1616.49 233.93L1616.49 265.93L1588.78 281.93L1561.06 265.93L1561.06 233.93zM1588.78 505.93L1616.49 521.93L1616.49 553.93L1588.78 569.93L1561.06 553.93L1561.06 521.93zM1561.06 553.93L1588.78 569.93L1588.78 601.93L1561.06 617.93L1533.35 601.93L1533.35 569.93zM1588.78 601.93L1616.49 617.93L1616.49 649.93L1588.78 665.93L1561.06 649.93L1561.06 617.93zM1588.78 889.93L1616.49 905.93L1616.49 937.93L1588.78 953.93L1561.06 937.93L1561.06 905.93zM1588.78 1369.93L1616.49 1385.93L1616.49 1417.93L1588.78 1433.93L1561.06 1417.93L1561.06 1385.93zM1561.06 1513.93L1588.78 1529.93L1588.78 1561.93L1561.06 1577.93L1533.35 1561.93L1533.35 1529.93zM1561.06 2569.93L1588.78 2585.93L1588.78 2617.93L1561.06 2633.93L1533.35 2617.93L1533.35 2585.93zM1561.06 2953.93L1588.78 2969.93L1588.78 3001.93L1561.06 3017.93L1533.35 3001.93L1533.35 2969.93zM1588.78 3289.93L1616.49 3305.93L1616.49 3337.93L1588.78 3353.93L1561.06 3337.93L1561.06 3305.93zM1561.06 3913.93L1588.78 3929.93L1588.78 3961.93L1561.06 3977.93L1533.35 3961.93L1533.35 3929.93zM1588.78 3961.93L1616.49 3977.93L1616.49 4009.93L1588.78 4025.93L1561.06 4009.93L1561.06 3977.93zM1644.2 121.93L1671.92 137.93L1671.92 169.93L1644.2 185.93L1616.49 169.93L1616.49 137.93zM1644.2 1657.93L1671.92 1673.93L1671.92 1705.93L1644.2 1721.93L1616.49 1705.93L1616.49 1673.93zM1616.49 1897.93L1644.2 1913.93L1644.2 1945.93L1616.49 1961.93L1588.78 1945.93L1588.78 1913.93zM1644.2 2425.93L1671.92 2441.93L1671.92 2473.93L1644.2 2489.93L1616.49 2473.93L1616.49 2441.93zM1644.2 2521.93L1671.92 2537.93L1671.92 2569.93L1644.2 2585.93L1616.49 2569.93L1616.49 2537.93zM1644.2 2617.93L1671.92 2633.93L1671.92 2665.93L1644.2 2681.93L1616.49 2665.93L1616.49 2633.93zM1644.2 2713.93L1671.92 2729.93L1671.92 2761.93L1644.2 2777.93L1616.49 2761.93L1616.49 2729.93zM1644.2 2809.93L1671.92 2825.93L1671.92 2857.93L1644.2 2873.93L1616.49 2857.93L1616.49 2825.93zM1644.2 3097.93L1671.92 3113.93L1671.92 3145.93L1644.2 3161.93L1616.49 3145.93L1616.49 3113.93zM1699.63 121.93L1727.34 137.93L1727.34 169.93L1699.63 185.93L1671.92 169.93L1671.92 137.93zM1699.63 889.93L1727.34 905.93L1727.34 937.93L1699.63 953.93L1671.92 937.93L1671.92 905.93zM1699.63 1561.93L1727.34 1577.93L1727.34 1609.93L1699.63 1625.93L1671.92 1609.93L1671.92 1577.93zM1671.92 2185.93L1699.63 2201.93L1699.63 2233.93L1671.92 2249.93L1644.2 2233.93L1644.2 2201.93zM1699.63 2521.93L1727.34 2537.93L1727.34 2569.93L1699.63 2585.93L1671.92 2569.93L1671.92 2537.93zM1699.63 2809.93L1727.34 2825.93L1727.34 2857.93L1699.63 2873.93L1671.92 2857.93L1671.92 2825.93zM1671.92 3241.93L1699.63 3257.93L1699.63 3289.93L1671.92 3305.93L1644.2 3289.93L1644.2 3257.93zM1699.63 3481.93L1727.34 3497.93L1727.34 3529.93L1699.63 3545.93L1671.92 3529.93L1671.92 3497.93zM1671.92 3529.93L1699.63 3545.93L1699.63 3577.93L1671.92 3593.93L1644.2 3577.93L1644.2 3545.93zM1755.06 1849.93L1782.77 1865.93L1782.77 1897.93L1755.06 1913.93L1727.34 1897.93L1727.34 1865.93zM1727.34 2185.93L1755.06 2201.93L1755.06 2233.93L1727.34 2249.93L1699.63 2233.93L1699.63 2201.93zM1755.06 3097.93L1782.77 3113.93L1782.77 3145.93L1755.06 3161.93L1727.34 3145.93L1727.34 3113.93zM1755.06 3289.93L1782.77 3305.93L1782.77 3337.93L1755.06 3353.93L1727.34 3337.93L1727.34 3305.93zM1782.77 553.93L1810.48 569.93L1810.48 601.93L1782.77 617.93L1755.06 601.93L1755.06 569.93zM1782.77 649.93L1810.48 665.93L1810.48 697.93L1782.77 713.93L1755.06 697.93L1755.06 665.93zM1810.48 2329.93L1838.2 2345.93L1838.2 2377.93L1810.48 2393.93L1782.77 2377.93L1782.77 2345.93zM1782.77 3049.93L1810.48 3065.93L1810.48 3097.93L1782.77 3113.93L1755.06 3097.93L1755.06 3065.93zM1865.91 409.93L1893.62 425.93L1893.62 457.93L1865.91 473.93L1838.2 457.93L1838.2 425.93zM1865.91 505.93L1893.62 521.93L1893.62 553.93L1865.91 569.93L1838.2 553.93L1838.2 521.93zM1838.2 553.93L1865.91 569.93L1865.91 601.93L1838.2 617.93L1810.48 601.93L1810.48 569.93zM1865.91 2233.93L1893.62 2249.93L1893.62 2281.93L1865.91 2297.93L1838.2 2281.93L1838.2 2249.93zM1865.91 2809.93L1893.62 2825.93L1893.62 2857.93L1865.91 2873.93L1838.2 2857.93L1838.2 2825.93zM1838.2 3241.93L1865.91 3257.93L1865.91 3289.93L1838.2 3305.93L1810.48 3289.93L1810.48 3257.93zM1865.91 3481.93L1893.62 3497.93L1893.62 3529.93L1865.91 3545.93L1838.2 3529.93L1838.2 3497.93zM1893.62 73.93L1921.34 89.93L1921.34 121.93L1893.62 137.93L1865.91 121.93L1865.91 89.93zM1893.62 841.93L1921.34 857.93L1921.34 889.93L1893.62 905.93L1865.91 889.93L1865.91 857.93zM1893.62 1129.93L1921.34 1145.93L1921.34 1177.93L1893.62 1193.93L1865.91 1177.93L1865.91 1145.93zM1893.62 1417.93L1921.34 1433.93L1921.34 1465.93L1893.62 1481.93L1865.91 1465.93L1865.91 1433.93zM1893.62 1801.93L1921.34 1817.93L1921.34 1849.93L1893.62 1865.93L1865.91 1849.93L1865.91 1817.93zM1921.34 2233.93L1949.05 2249.93L1949.05 2281.93L1921.34 2297.93L1893.62 2281.93L1893.62 2249.93zM1921.34 2425.93L1949.05 2441.93L1949.05 2473.93L1921.34 2489.93L1893.62 2473.93L1893.62 2441.93zM1893.62 2857.93L1921.34 2873.93L1921.34 2905.93L1893.62 2921.93L1865.91 2905.93L1865.91 2873.93zM1921.34 3193.93L1949.05 3209.93L1949.05 3241.93L1921.34 3257.93L1893.62 3241.93L1893.62 3209.93zM1949.05 -22.07L1976.77 -6.07L1976.77 25.93L1949.05 41.93L1921.34 25.93L1921.34 -6.07zM1949.05 265.93L1976.77 281.93L1976.77 313.93L1949.05 329.93L1921.34 313.93L1921.34 281.93zM1976.77 313.93L2004.48 329.93L2004.48 361.93L1976.77 377.93L1949.05 361.93L1949.05 329.93zM1949.05 649.93L1976.77 665.93L1976.77 697.93L1949.05 713.93L1921.34 697.93L1921.34 665.93zM1976.77 889.93L2004.48 905.93L2004.48 937.93L1976.77 953.93L1949.05 937.93L1949.05 905.93zM1949.05 1033.93L1976.77 1049.93L1976.77 1081.93L1949.05 1097.93L1921.34 1081.93L1921.34 1049.93zM1949.05 1225.93L1976.77 1241.93L1976.77 1273.93L1949.05 1289.93L1921.34 1273.93L1921.34 1241.93zM1949.05 1993.93L1976.77 2009.93L1976.77 2041.93L1949.05 2057.93L1921.34 2041.93L1921.34 2009.93zM1976.77 2425.93L2004.48 2441.93L2004.48 2473.93L1976.77 2489.93L1949.05 2473.93L1949.05 2441.93zM1949.05 2569.93L1976.77 2585.93L1976.77 2617.93L1949.05 2633.93L1921.34 2617.93L1921.34 2585.93zM1949.05 2761.93L1976.77 2777.93L1976.77 2809.93L1949.05 2825.93L1921.34 2809.93L1921.34 2777.93zM2004.48 73.93L2032.19 89.93L2032.19 121.93L2004.48 137.93L1976.77 121.93L1976.77 89.93zM2032.19 409.93L2059.91 425.93L2059.91 457.93L2032.19 473.93L2004.48 457.93L2004.48 425.93zM2004.48 745.93L2032.19 761.93L2032.19 793.93L2004.48 809.93L1976.77 793.93L1976.77 761.93zM2032.19 1273.93L2059.91 1289.93L2059.91 1321.93L2032.19 1337.93L2004.48 1321.93L2004.48 1289.93zM2032.19 1369.93L2059.91 1385.93L2059.91 1417.93L2032.19 1433.93L2004.48 1417.93L2004.48 1385.93zM2004.48 1417.93L2032.19 1433.93L2032.19 1465.93L2004.48 1481.93L1976.77 1465.93L1976.77 1433.93zM2032.19 1465.93L2059.91 1481.93L2059.91 1513.93L2032.19 1529.93L2004.48 1513.93L2004.48 1481.93zM2004.48 1705.93L2032.19 1721.93L2032.19 1753.93L2004.48 1769.93L1976.77 1753.93L1976.77 1721.93zM2004.48 1801.93L2032.19 1817.93L2032.19 1849.93L2004.48 1865.93L1976.77 1849.93L1976.77 1817.93zM2032.19 2521.93L2059.91 2537.93L2059.91 2569.93L2032.19 2585.93L2004.48 2569.93L2004.48 2537.93zM2032.19 2905.93L2059.91 2921.93L2059.91 2953.93L2032.19 2969.93L2004.48 2953.93L2004.48 2921.93zM2004.48 2953.93L2032.19 2969.93L2032.19 3001.93L2004.48 3017.93L1976.77 3001.93L1976.77 2969.93zM2032.19 3001.93L2059.91 3017.93L2059.91 3049.93L2032.19 3065.93L2004.48 3049.93L2004.48 3017.93zM2004.48 3529.93L2032.19 3545.93L2032.19 3577.93L2004.48 3593.93L1976.77 3577.93L1976.77 3545.93zM2032.19 3769.93L2059.91 3785.93L2059.91 3817.93L2032.19 3833.93L2004.48 3817.93L2004.48 3785.93z" stroke="rgba(25, 77, 131, 1)" stroke-width="2"></path></g><defs><mask id="SvgjsMask1007"><rect width="2000" height="4000" fill="#ffffff"></rect></mask></defs></svg>